HIERARCHY
ROOT hip
{
	OFFSET 0.000000 0.000000 0.000000 
	CHANNELS 6 Xposition Yposition Zposition Xrotation Zrotation Yrotation
	JOINT abdomen
	{
		OFFSET 0.000000 3.402643 0.000000 
		CHANNELS 3 Xrotation Zrotation Yrotation
		JOINT chest
		{
			OFFSET 0.000000 8.438565 -0.680529 
			CHANNELS 3 Xrotation Zrotation Yrotation
			JOINT neck
			{
				OFFSET 0.000000 10.207942 -0.272212 
				CHANNELS 3 Xrotation Zrotation Yrotation
				JOINT head
				{
					OFFSET 0.000000 3.130431 0.000000 
					CHANNELS 3 Xrotation Zrotation Yrotation
					End Site
					{
						OFFSET 0.000000 3.130435 0.000000 
					}
				}
			}
			JOINT lCollar
			{
				OFFSET 3.470700 6.669187 -0.816635 
				CHANNELS 3 Yrotation Zrotation Xrotation
				JOINT lShldr
				{
					OFFSET 3.198488 0.000000 0.000000 
					CHANNELS 3 Zrotation Yrotation Xrotation
					JOINT lForeArm
					{
						OFFSET 10.139888 0.000000 0.000000 
						CHANNELS 3 Yrotation Zrotation Xrotation
						JOINT lHand
						{
							OFFSET 8.370511 0.000000 0.000000 
							CHANNELS 3 Zrotation Yrotation Xrotation
							End Site
							{
								OFFSET 4.083176 0.000000 0.000000 
							}
						}
					}
				}
			}
			JOINT rCollar
			{
				OFFSET -3.470700 6.669187 -0.816635 
				CHANNELS 3 Yrotation Zrotation Xrotation
				JOINT rShldr
				{
					OFFSET -3.198488 0.000000 0.000000 
					CHANNELS 3 Zrotation Yrotation Xrotation
					JOINT rForeArm
					{
						OFFSET -10.139888 0.000000 0.000000 
						CHANNELS 3 Yrotation Zrotation Xrotation
						JOINT rHand
						{
							OFFSET -8.370511 0.000000 0.000000 
							CHANNELS 3 Zrotation Yrotation Xrotation
							End Site
							{
								OFFSET -4.083176 0.000000 0.000000 
							}
						}
					}
				}
			}
		}
	}
	JOINT lThigh
	{
		OFFSET 5.308129 -1.633274 1.361059 
		CHANNELS 3 Xrotation Zrotation Yrotation
		JOINT lShin
		{
			OFFSET -2.041588 -20.007561 0.000000 
			CHANNELS 3 Xrotation Zrotation Yrotation
			JOINT lFoot
			{
				OFFSET 0.000000 -19.190928 -1.224953 
				CHANNELS 3 Xrotation Yrotation Zrotation
				End Site
				{
					OFFSET 0.000000 -2.449906 4.627600 
				}
			}
		}
	}
	JOINT rThigh
	{
		OFFSET -5.308129 -1.633274 1.361059 
		CHANNELS 3 Xrotation Zrotation Yrotation
		JOINT rShin
		{
			OFFSET 2.041588 -20.007561 0.000000 
			CHANNELS 3 Xrotation Zrotation Yrotation
			JOINT rFoot
			{
				OFFSET 0.000000 -19.190928 -1.224953 
				CHANNELS 3 Xrotation Yrotation Zrotation
				End Site
				{
					OFFSET 0.000000 -2.449906 4.627600 
				}
			}
		}
	}
}
MOTION
Frames: 8
Frame Time: 0.011111
47.737682 53.640137 53.899273 4.858724 2.047838 -96.372490 22.710911 -0.683604 4.729885 -21.917562 2.874057 1.592834 -11.939210 -2.657981 -1.577522 15.800173 5.526910 -2.997954 2.971642 -4.490881 1.927035 -71.826675 -31.173260 23.777357 -49.568165 7.600914 7.983811 8.524705 12.647240 -45.599010 -4.704987 0.510038 2.448925 77.013359 30.303005 19.812040 45.456081 -6.527627 6.382131 -8.534408 -12.637552 53.431496 -2.753870 10.691746 4.537421 29.253529 -5.376825 -4.750088 -24.867132 -3.285177 -3.790874 -2.746639 -1.860862 2.653706 30.047461 5.307133 4.852151 -23.819096 -3.508413 0.927649 
47.742706 53.618137 53.910896 5.012979 2.156948 -96.437874 22.594381 -0.556072 4.991402 -21.898338 2.749291 1.657985 -11.841611 -2.594909 -1.627689 15.680861 5.559502 -3.087384 2.971642 -4.490881 1.927035 -71.747383 -31.185059 23.984863 -49.526318 7.589903 7.965053 8.524705 12.647240 -45.550182 -4.704987 0.510038 2.448925 76.980431 30.265671 19.971849 45.578743 -6.557216 6.429179 -8.534408 -12.637552 53.870953 -2.909181 10.824270 4.371240 29.323061 -5.376872 -4.756217 -24.870174 -3.211085 -3.742347 -2.982415 -2.105268 0.376002 30.257738 5.296805 4.858965 -23.250481 -1.838878 1.688248 
47.755592 53.615311 53.905548 4.849156 2.141341 -96.517601 22.610123 -0.838701 4.991200 -21.897873 2.887177 1.681184 -11.910572 -2.610053 -1.639612 15.806743 5.516171 -3.127676 2.971642 -4.490881 1.927035 -71.788567 -31.223083 24.069187 -49.525326 7.583563 7.957691 8.524705 12.647240 -45.520885 -4.704987 0.510038 2.448925 76.877419 30.369183 19.962332 45.569019 -6.558647 6.427762 -8.534408 -12.637552 54.095562 -2.869682 10.667403 4.553022 29.323849 -5.372091 -4.755061 -24.832161 -3.263739 -3.763607 -3.048623 -1.997237 1.974800 30.326685 5.302011 4.856664 -23.708874 -2.889928 1.225531 
47.771622 53.621277 53.895500 4.717497 2.129631 -96.652016 22.668974 -1.070955 4.936572 -21.956087 3.026358 1.691533 -11.930461 -2.692471 -1.600884 15.886306 5.535658 -3.060445 2.971642 -4.490881 1.927035 -71.846588 -31.172749 23.992771 -49.567173 7.594580 7.976445 8.524705 12.647240 -45.501354 -4.704987 0.510038 2.448925 76.797264 30.373581 20.007744 45.620235 -6.571377 6.445901 -8.534408 -12.637552 54.115097 -2.850405 10.570532 4.795923 29.362915 -5.372203 -4.777991 -24.800535 -3.208703 -3.749041 -3.137709 -2.037059 2.478419 30.387470 5.287531 4.887375 -23.827848 -3.214566 1.048404 
47.781055 53.614998 53.902409 4.927618 2.027654 -96.720940 22.827135 -0.840230 4.969996 -22.005241 2.939098 1.673511 -11.889135 -2.576438 -1.578234 15.877978 5.431942 -3.004041 2.971642 -4.490881 1.927035 -71.836296 -31.163240 23.709282 -49.537178 7.593786 7.964274 8.524705 12.647240 -45.696667 -4.704987 0.510038 2.448925 76.862381 30.301512 20.201107 45.692730 -6.594223 6.471050 -8.534408 -12.637552 53.958839 -2.792301 10.777930 4.825739 29.412731 -5.371347 -4.782049 -24.754131 -3.133469 -3.697653 -2.999547 -1.860689 2.217650 30.356104 5.302097 4.869000 -23.689531 -3.341301 1.050490 
47.780109 53.614998 53.912468 4.964328 1.955793 -96.590462 22.902811 -0.770987 4.800984 -21.995575 2.926353 1.615930 -11.867373 -2.407527 -1.585143 15.838589 5.249579 -2.996369 2.971642 -4.490881 1.927035 -71.836632 -31.173004 23.435846 -49.526318 7.589903 7.965053 8.524705 12.647240 -45.911510 -4.704987 0.510038 2.448925 76.934654 30.326904 20.375040 45.702454 -6.592780 6.472473 -8.534408 -12.637552 54.105328 -2.801067 10.782290 4.628363 29.522728 -5.366713 -4.791465 -24.728718 -3.156878 -3.734905 -2.847363 -1.882182 1.803687 30.316580 5.296953 4.883628 -23.514042 -3.220370 1.098776 
47.784821 53.616875 53.930065 5.098327 1.889650 -96.466713 23.022207 -0.559075 4.828802 -21.986044 2.847587 1.610262 -11.987015 -2.527346 -1.611680 16.003300 5.362803 -3.060264 2.971642 -4.490881 1.927035 -71.857224 -31.192009 23.524305 -49.557499 7.596429 7.974843 8.524705 12.647240 -45.911510 -4.704987 0.510038 2.448925 76.930389 30.405416 20.208607 45.733223 -6.602084 6.491757 -8.534408 -12.637552 54.163921 -2.850726 10.864518 4.334985 29.623566 -5.357236 -4.797904 -24.730427 -3.020315 -3.668463 -2.713076 -1.795765 1.667332 30.257742 5.296799 4.858963 -23.417892 -2.974374 1.212790 
47.801796 53.631966 53.945778 5.276798 1.981697 -96.549744 22.987221 -0.319370 5.085052 -21.986355 2.732320 1.654664 -12.108605 -2.767998 -1.641840 16.157715 5.590394 -3.149572 2.971642 -4.490881 1.927035 -71.867867 -31.211281 23.768732 -49.568165 7.600914 7.983811 8.524705 12.647240 -45.745491 -4.704987 0.510038 2.448925 76.871727 30.428209 20.059565 45.775547 -6.622938 6.515517 -8.534408 -12.637552 54.036968 -3.006428 11.028677 4.268330 29.703758 -5.352484 -4.803727 -24.818611 -2.773358 -3.522270 -2.790580 -1.639336 1.707948 30.207819 5.296821 4.864322 -23.396616 -2.602176 1.359439 
